<?xml version="1.0" encoding="UTF-8" standalone="no"?><svg xmlns="http://www.w3.org/2000/svg" xmlns:xlink="http://www.w3.org/1999/xlink" contentScriptType="application/ecmascript" contentStyleType="text/css" height="446px" preserveAspectRatio="none" style="width:253px;height:446px;" version="1.1" viewBox="0 0 253 446" width="253px" zoomAndPan="magnify"><defs><filter height="300%" id="fwgfsbct2i59r" width="300%" x="-1" y="-1"><feGaussianBlur result="blurOut" stdDeviation="2.0"/><feColorMatrix in="blurOut" result="blurOut2" type="matrix" values="0 0 0 0 0 0 0 0 0 0 0 0 0 0 0 0 0 0 .4 0"/><feOffset dx="4.0" dy="4.0" in="blurOut2" result="blurOut3"/><feBlend in="SourceGraphic" in2="blurOut3" mode="normal"/></filter></defs><g><ellipse cx="126.5" cy="20" fill="#000000" filter="url(#fwgfsbct2i59r)" rx="10" ry="10" style="stroke: none; stroke-width: 1.0;"/><rect fill="#FEFECE" filter="url(#fwgfsbct2i59r)" height="36.3887" rx="12.5" ry="12.5" style="stroke: #A80036; stroke-width: 1.5;" width="231" x="11" y="50"/><text fill="#000000" font-family="sans-serif" font-size="12" lengthAdjust="spacingAndGlyphs" textLength="208" x="24" y="73.752">运行可迭代对象的[Symbol.iterator]方法</text><rect fill="#FEFECE" filter="url(#fwgfsbct2i59r)" height="36.3887" rx="12.5" ry="12.5" style="stroke: #A80036; stroke-width: 1.5;" width="129" x="62" y="106.3887"/><text fill="#000000" font-family="sans-serif" font-size="12" lengthAdjust="spacingAndGlyphs" textLength="106" x="75" y="130.1406">得到迭代器(iterator)</text><rect fill="#FEFECE" filter="url(#fwgfsbct2i59r)" height="36.3887" rx="12.5" ry="12.5" style="stroke: #A80036; stroke-width: 1.5;" width="162" x="45.5" y="162.7773"/><text fill="#000000" font-family="sans-serif" font-size="12" lengthAdjust="spacingAndGlyphs" textLength="139" x="58.5" y="186.5293">const next = iterator.next()</text><rect fill="#FEFECE" filter="url(#fwgfsbct2i59r)" height="36.3887" rx="12.5" ry="12.5" style="stroke: #A80036; stroke-width: 1.5;" width="149" x="52" y="263.166"/><text fill="#000000" font-family="sans-serif" font-size="12" lengthAdjust="spacingAndGlyphs" textLength="126" x="65" y="286.918">将next.value赋值给变量</text><rect fill="#FEFECE" filter="url(#fwgfsbct2i59r)" height="36.3887" rx="12.5" ry="12.5" style="stroke: #A80036; stroke-width: 1.5;" width="159" x="47" y="319.5547"/><text fill="#000000" font-family="sans-serif" font-size="12" lengthAdjust="spacingAndGlyphs" textLength="136" x="60" y="343.3066">进入for-of循环体执行一次</text><rect fill="#FEFECE" filter="url(#fwgfsbct2i59r)" height="36.3887" rx="12.5" ry="12.5" style="stroke: #A80036; stroke-width: 1.5;" width="129" x="62" y="375.9434"/><text fill="#000000" font-family="sans-serif" font-size="12" lengthAdjust="spacingAndGlyphs" textLength="106" x="75" y="399.6953">next = iterator.next()</text><polygon fill="#FEFECE" filter="url(#fwgfsbct2i59r)" points="98.5,219.166,154.5,219.166,166.5,231.166,154.5,243.166,98.5,243.166,86.5,231.166,98.5,219.166" style="stroke: #A80036; stroke-width: 1.5;"/><text fill="#000000" font-family="sans-serif" font-size="11" lengthAdjust="spacingAndGlyphs" textLength="56" x="98.5" y="236.2605">!next.done?</text><ellipse cx="24" cy="274.166" fill="#FFFFFF" filter="url(#fwgfsbct2i59r)" rx="11" ry="11" style="stroke: #000000; stroke-width: 1.0;"/><ellipse cx="24" cy="274.166" fill="#000000" rx="6" ry="6" style="stroke: #7F7F7F; stroke-width: 1.0;"/><line style="stroke: #A80036; stroke-width: 1.5;" x1="126.5" x2="126.5" y1="30" y2="50"/><polygon fill="#A80036" points="122.5,40,126.5,50,130.5,40,126.5,44" style="stroke: #A80036; stroke-width: 1.0;"/><line style="stroke: #A80036; stroke-width: 1.5;" x1="126.5" x2="126.5" y1="86.3887" y2="106.3887"/><polygon fill="#A80036" points="122.5,96.3887,126.5,106.3887,130.5,96.3887,126.5,100.3887" style="stroke: #A80036; stroke-width: 1.0;"/><line style="stroke: #A80036; stroke-width: 1.5;" x1="126.5" x2="126.5" y1="142.7773" y2="162.7773"/><polygon fill="#A80036" points="122.5,152.7773,126.5,162.7773,130.5,152.7773,126.5,156.7773" style="stroke: #A80036; stroke-width: 1.0;"/><line style="stroke: #A80036; stroke-width: 1.5;" x1="126.5" x2="126.5" y1="299.5547" y2="319.5547"/><polygon fill="#A80036" points="122.5,309.5547,126.5,319.5547,130.5,309.5547,126.5,313.5547" style="stroke: #A80036; stroke-width: 1.0;"/><line style="stroke: #A80036; stroke-width: 1.5;" x1="126.5" x2="126.5" y1="355.9434" y2="375.9434"/><polygon fill="#A80036" points="122.5,365.9434,126.5,375.9434,130.5,365.9434,126.5,369.9434" style="stroke: #A80036; stroke-width: 1.0;"/><line style="stroke: #A80036; stroke-width: 1.5;" x1="126.5" x2="126.5" y1="243.166" y2="263.166"/><polygon fill="#A80036" points="122.5,253.166,126.5,263.166,130.5,253.166,126.5,257.166" style="stroke: #A80036; stroke-width: 1.0;"/><line style="stroke: #A80036; stroke-width: 1.5;" x1="126.5" x2="126.5" y1="412.332" y2="422.332"/><line style="stroke: #A80036; stroke-width: 1.5;" x1="126.5" x2="218" y1="422.332" y2="422.332"/><polygon fill="#A80036" points="214,335.749,218,325.749,222,335.749,218,331.749" style="stroke: #A80036; stroke-width: 1.5;"/><line style="stroke: #A80036; stroke-width: 1.5;" x1="218" x2="218" y1="231.166" y2="422.332"/><line style="stroke: #A80036; stroke-width: 1.5;" x1="218" x2="166.5" y1="231.166" y2="231.166"/><polygon fill="#A80036" points="176.5,227.166,166.5,231.166,176.5,235.166,172.5,231.166" style="stroke: #A80036; stroke-width: 1.0;"/><line style="stroke: #A80036; stroke-width: 1.5;" x1="86.5" x2="24" y1="231.166" y2="231.166"/><line style="stroke: #A80036; stroke-width: 1.5;" x1="24" x2="24" y1="231.166" y2="263.166"/><polygon fill="#A80036" points="20,253.166,24,263.166,28,253.166,24,257.166" style="stroke: #A80036; stroke-width: 1.0;"/><line style="stroke: #A80036; stroke-width: 1.5;" x1="126.5" x2="126.5" y1="199.166" y2="219.166"/><polygon fill="#A80036" points="122.5,209.166,126.5,219.166,130.5,209.166,126.5,213.166" style="stroke: #A80036; stroke-width: 1.0;"/><!--
@startuml

start

: 运行可迭代对象的[Symbol.iterator]方法;
: 得到迭代器(iterator);
: const next = iterator.next();
while(!next.done?)
    : 将next.value赋值给变量;
    : 进入for-of循环体执行一次;
    : next = iterator.next();
endwhile;
stop

@enduml 

PlantUML version 1.2019.09(Tue Aug 27 00:19:51 CST 2019)
(GPL source distribution)
Java Runtime: Java(TM) SE Runtime Environment
JVM: Java HotSpot(TM) 64-Bit Server VM
Java Version: 1.8.0_201-b09
Operating System: Windows 10
OS Version: 10.0
Default Encoding: GBK
Language: zh
Country: CN
--></g></svg>