<?xml version="1.0" encoding="UTF-8" standalone="no"?><svg xmlns="http://www.w3.org/2000/svg" xmlns:xlink="http://www.w3.org/1999/xlink" contentScriptType="application/ecmascript" contentStyleType="text/css" height="188px" preserveAspectRatio="none" style="width:414px;height:188px;" version="1.1" viewBox="0 0 414 188" width="414px" zoomAndPan="magnify"><defs><filter height="300%" id="fm1jfra5zlxeo" width="300%" x="-1" y="-1"><feGaussianBlur result="blurOut" stdDeviation="2.0"/><feColorMatrix in="blurOut" result="blurOut2" type="matrix" values="0 0 0 0 0 0 0 0 0 0 0 0 0 0 0 0 0 0 .4 0"/><feOffset dx="4.0" dy="4.0" in="blurOut2" result="blurOut3"/><feBlend in="SourceGraphic" in2="blurOut3" mode="normal"/></filter></defs><g><rect fill="#FEFECE" filter="url(#fm1jfra5zlxeo)" height="39.1201" rx="12.5" ry="12.5" style="stroke: #A80036; stroke-width: 1.5;" width="62" x="10" y="79.1201"/><text fill="#000000" font-family="sans-serif" font-size="14" lengthAdjust="spacingAndGlyphs" textLength="42" x="20" y="105.1641">生成器</text><rect fill="#FEFECE" filter="url(#fm1jfra5zlxeo)" height="39.1201" rx="12.5" ry="12.5" style="stroke: #A80036; stroke-width: 1.5;" width="48" x="122" y="79.1201"/><text fill="#000000" font-family="sans-serif" font-size="14" lengthAdjust="spacingAndGlyphs" textLength="28" x="132" y="105.1641">对象</text><rect fill="#FEFECE" filter="url(#fm1jfra5zlxeo)" height="39.1201" rx="12.5" ry="12.5" style="stroke: #A80036; stroke-width: 1.5;" width="183" x="220" y="20"/><text fill="#000000" font-family="sans-serif" font-size="14" lengthAdjust="spacingAndGlyphs" textLength="163" x="230" y="46.0439">有Generator构造函数创建</text><path d="M170,98.6802 L180,98.6802 C195,98.6802 195,39.5601 210,39.5601 L220,39.5601 " fill="none" style="stroke: #A80036; stroke-width: 1.0;"/><rect fill="#FEFECE" filter="url(#fm1jfra5zlxeo)" height="39.1201" rx="12.5" ry="12.5" style="stroke: #A80036; stroke-width: 1.5;" width="62" x="220" y="79.1201"/><text fill="#000000" font-family="sans-serif" font-size="14" lengthAdjust="spacingAndGlyphs" textLength="42" x="230" y="105.1641">迭代器</text><path d="M170,98.6802 L180,98.6802 C195,98.6802 195,98.6802 210,98.6802 L220,98.6802 " fill="none" style="stroke: #A80036; stroke-width: 1.0;"/><rect fill="#FEFECE" filter="url(#fm1jfra5zlxeo)" height="39.1201" rx="12.5" ry="12.5" style="stroke: #A80036; stroke-width: 1.5;" width="118" x="220" y="138.2402"/><text fill="#000000" font-family="sans-serif" font-size="14" lengthAdjust="spacingAndGlyphs" textLength="98" x="230" y="164.2842">满足可迭代协议</text><path d="M170,98.6802 L180,98.6802 C195,98.6802 195,157.8003 210,157.8003 L220,157.8003 " fill="none" style="stroke: #A80036; stroke-width: 1.0;"/><path d="M72,98.6802 L82,98.6802 C97,98.6802 97,98.6802 112,98.6802 L122,98.6802 " fill="none" style="stroke: #A80036; stroke-width: 1.0;"/><!--
@startmindmap

* 生成器
** 对象
*** 有Generator构造函数创建
*** 迭代器
*** 满足可迭代协议

@endmindmap

PlantUML version 1.2019.09(Tue Aug 27 00:19:51 CST 2019)
(GPL source distribution)
Java Runtime: Java(TM) SE Runtime Environment
JVM: Java HotSpot(TM) 64-Bit Server VM
Java Version: 1.8.0_201-b09
Operating System: Windows 10
OS Version: 10.0
Default Encoding: GBK
Language: zh
Country: CN
--></g></svg>