<?xml version="1.0" encoding="UTF-8" standalone="no"?><svg xmlns="http://www.w3.org/2000/svg" xmlns:xlink="http://www.w3.org/1999/xlink" contentScriptType="application/ecmascript" contentStyleType="text/css" height="306px" preserveAspectRatio="none" style="width:870px;height:306px;" version="1.1" viewBox="0 0 870 306" width="870px" zoomAndPan="magnify"><defs><filter height="300%" id="f1pbspurx4t34f" width="300%" x="-1" y="-1"><feGaussianBlur result="blurOut" stdDeviation="2.0"/><feColorMatrix in="blurOut" result="blurOut2" type="matrix" values="0 0 0 0 0 0 0 0 0 0 0 0 0 0 0 0 0 0 .4 0"/><feOffset dx="4.0" dy="4.0" in="blurOut2" result="blurOut3"/><feBlend in="SourceGraphic" in2="blurOut3" mode="normal"/></filter></defs><g><rect fill="#FEFECE" filter="url(#f1pbspurx4t34f)" height="39.1201" rx="12.5" ry="12.5" style="stroke: #A80036; stroke-width: 1.5;" width="62" x="10" y="138.2402"/><text fill="#000000" font-family="sans-serif" font-size="14" lengthAdjust="spacingAndGlyphs" textLength="42" x="20" y="164.2842">迭代器</text><rect fill="#FEFECE" filter="url(#f1pbspurx4t34f)" height="39.1201" rx="12.5" ry="12.5" style="stroke: #A80036; stroke-width: 1.5;" width="48" x="122" y="79.1201"/><text fill="#000000" font-family="sans-serif" font-size="14" lengthAdjust="spacingAndGlyphs" textLength="28" x="132" y="105.1641">对象</text><path d="M72,157.8003 L82,157.8003 C97,157.8003 97,98.6802 112,98.6802 L122,98.6802 " fill="none" style="stroke: #A80036; stroke-width: 1.0;"/><rect fill="#FEFECE" filter="url(#f1pbspurx4t34f)" height="39.1201" rx="12.5" ry="12.5" style="stroke: #A80036; stroke-width: 1.5;" width="107" x="122" y="138.2402"/><text fill="#000000" font-family="sans-serif" font-size="14" lengthAdjust="spacingAndGlyphs" textLength="28" x="132" y="164.2842">具有</text><text fill="#000000" font-family="sans-serif" font-size="14" font-weight="bold" lengthAdjust="spacingAndGlyphs" textLength="31" x="160" y="164.2842">next</text><text fill="#000000" font-family="sans-serif" font-size="14" lengthAdjust="spacingAndGlyphs" textLength="28" x="191" y="164.2842">方法</text><rect fill="#FEFECE" filter="url(#f1pbspurx4t34f)" height="39.1201" rx="12.5" ry="12.5" style="stroke: #A80036; stroke-width: 1.5;" width="188" x="279" y="138.2402"/><text fill="#000000" font-family="sans-serif" font-size="14" lengthAdjust="spacingAndGlyphs" textLength="168" x="289" y="164.2842">返回一个对象，对象中包含</text><rect fill="#FEFECE" filter="url(#f1pbspurx4t34f)" height="39.1201" rx="12.5" ry="12.5" style="stroke: #A80036; stroke-width: 1.5;" width="54" x="517" y="79.1201"/><text fill="#000000" font-family="sans-serif" font-size="14" lengthAdjust="spacingAndGlyphs" textLength="34" x="527" y="105.1641">value</text><rect fill="#FEFECE" filter="url(#f1pbspurx4t34f)" height="39.1201" rx="12.5" ry="12.5" style="stroke: #A80036; stroke-width: 1.5;" width="71" x="621" y="20"/><text fill="#000000" font-family="sans-serif" font-size="14" lengthAdjust="spacingAndGlyphs" textLength="51" x="631" y="46.0439">any类型</text><path d="M571,98.6802 L581,98.6802 C596,98.6802 596,39.5601 611,39.5601 L621,39.5601 " fill="none" style="stroke: #A80036; stroke-width: 1.0;"/><rect fill="#FEFECE" filter="url(#f1pbspurx4t34f)" height="39.1201" rx="12.5" ry="12.5" style="stroke: #A80036; stroke-width: 1.5;" width="118" x="621" y="79.1201"/><text fill="#000000" font-family="sans-serif" font-size="14" lengthAdjust="spacingAndGlyphs" textLength="98" x="631" y="105.1641">下一个数据的值</text><path d="M571,98.6802 L581,98.6802 C596,98.6802 596,98.6802 611,98.6802 L621,98.6802 " fill="none" style="stroke: #A80036; stroke-width: 1.0;"/><rect fill="#FEFECE" filter="url(#f1pbspurx4t34f)" height="39.1201" rx="12.5" ry="12.5" style="stroke: #A80036; stroke-width: 1.5;" width="238" x="621" y="138.2402"/><text fill="#000000" font-family="sans-serif" font-size="14" lengthAdjust="spacingAndGlyphs" textLength="218" x="631" y="164.2842">done为true时，通常其为undefined</text><path d="M571,98.6802 L581,98.6802 C596,98.6802 596,157.8003 611,157.8003 L621,157.8003 " fill="none" style="stroke: #A80036; stroke-width: 1.0;"/><path d="M467,157.8003 L477,157.8003 C492,157.8003 492,98.6802 507,98.6802 L517,98.6802 " fill="none" style="stroke: #A80036; stroke-width: 1.0;"/><rect fill="#FEFECE" filter="url(#f1pbspurx4t34f)" height="39.1201" rx="12.5" ry="12.5" style="stroke: #A80036; stroke-width: 1.5;" width="52" x="517" y="226.9204"/><text fill="#000000" font-family="sans-serif" font-size="14" lengthAdjust="spacingAndGlyphs" textLength="32" x="527" y="252.9644">done</text><rect fill="#FEFECE" filter="url(#f1pbspurx4t34f)" height="39.1201" rx="12.5" ry="12.5" style="stroke: #A80036; stroke-width: 1.5;" width="75" x="619" y="197.3604"/><text fill="#000000" font-family="sans-serif" font-size="14" lengthAdjust="spacingAndGlyphs" textLength="55" x="629" y="223.4043">bool类型</text><path d="M569,246.4805 L579,246.4805 C594,246.4805 594,216.9204 609,216.9204 L619,216.9204 " fill="none" style="stroke: #A80036; stroke-width: 1.0;"/><rect fill="#FEFECE" filter="url(#f1pbspurx4t34f)" height="39.1201" rx="12.5" ry="12.5" style="stroke: #A80036; stroke-width: 1.5;" width="160" x="619" y="256.4805"/><text fill="#000000" font-family="sans-serif" font-size="14" lengthAdjust="spacingAndGlyphs" textLength="140" x="629" y="282.5244">指示迭代是否已经完成</text><path d="M569,246.4805 L579,246.4805 C594,246.4805 594,276.0405 609,276.0405 L619,276.0405 " fill="none" style="stroke: #A80036; stroke-width: 1.0;"/><path d="M467,157.8003 L477,157.8003 C492,157.8003 492,246.4805 507,246.4805 L517,246.4805 " fill="none" style="stroke: #A80036; stroke-width: 1.0;"/><path d="M229,157.8003 L239,157.8003 C254,157.8003 254,157.8003 269,157.8003 L279,157.8003 " fill="none" style="stroke: #A80036; stroke-width: 1.0;"/><path d="M72,157.8003 L82,157.8003 C97,157.8003 97,157.8003 112,157.8003 L122,157.8003 " fill="none" style="stroke: #A80036; stroke-width: 1.0;"/><!--
@startmindmap

* 迭代器
** 对象
** 具有**next**方法
*** 返回一个对象，对象中包含
**** value
***** any类型
***** 下一个数据的值
***** done为true时，通常其为undefined
**** done
***** bool类型
***** 指示迭代是否已经完成
@endmindmap

PlantUML version 1.2019.09(Tue Aug 27 00:19:51 CST 2019)
(GPL source distribution)
Java Runtime: Java(TM) SE Runtime Environment
JVM: Java HotSpot(TM) 64-Bit Server VM
Java Version: 1.8.0_201-b09
Operating System: Windows 10
OS Version: 10.0
Default Encoding: GBK
Language: zh
Country: CN
--></g></svg>