<?xml version="1.0" encoding="UTF-8" standalone="no"?><svg xmlns="http://www.w3.org/2000/svg" xmlns:xlink="http://www.w3.org/1999/xlink" contentScriptType="application/ecmascript" contentStyleType="text/css" height="683px" preserveAspectRatio="none" style="width:246px;height:683px;" version="1.1" viewBox="0 0 246 683" width="246px" zoomAndPan="magnify"><defs/><g><text fill="#000000" font-family="sans-serif" font-size="12" lengthAdjust="spacingAndGlyphs" textLength="84" x="16" y="19.752">vue-project-dist</text><text fill="#000000" font-family="sans-serif" font-size="12" lengthAdjust="spacingAndGlyphs" textLength="129" x="26" y="36.1406">config（项目环境配置）</text><text fill="#000000" font-family="sans-serif" font-size="12" lengthAdjust="spacingAndGlyphs" textLength="42" x="36" y="52.5293">index.js</text><text fill="#000000" font-family="sans-serif" font-size="12" lengthAdjust="spacingAndGlyphs" textLength="105" x="26" y="68.918">public（公共资源）</text><text fill="#000000" font-family="sans-serif" font-size="12" lengthAdjust="spacingAndGlyphs" textLength="57" x="36" y="85.3066">favicon.ico</text><text fill="#000000" font-family="sans-serif" font-size="12" lengthAdjust="spacingAndGlyphs" textLength="56" x="36" y="101.6953">index.html</text><text fill="#000000" font-family="sans-serif" font-size="12" lengthAdjust="spacingAndGlyphs" textLength="17" x="26" y="118.084">src</text><text fill="#000000" font-family="sans-serif" font-size="12" lengthAdjust="spacingAndGlyphs" textLength="110" x="36" y="134.4727">assets（静态资源）</text><text fill="#000000" font-family="sans-serif" font-size="12" lengthAdjust="spacingAndGlyphs" textLength="93" x="46" y="150.8613">img（图片资源）</text><text fill="#000000" font-family="sans-serif" font-size="12" lengthAdjust="spacingAndGlyphs" textLength="116" x="46" y="167.25">font（字体图标资源）</text><text fill="#000000" font-family="sans-serif" font-size="12" lengthAdjust="spacingAndGlyphs" textLength="92" x="46" y="183.6387">css（通用样式）</text><text fill="#000000" font-family="sans-serif" font-size="12" lengthAdjust="spacingAndGlyphs" textLength="84" x="36" y="200.0273">mixins（混入）</text><text fill="#000000" font-family="sans-serif" font-size="12" lengthAdjust="spacingAndGlyphs" textLength="145" x="46" y="216.416">common（页面通用混入）</text><text fill="#000000" font-family="sans-serif" font-size="12" lengthAdjust="spacingAndGlyphs" textLength="170" x="46" y="232.8047">user（user路由下的通用混入）</text><text fill="#000000" font-family="sans-serif" font-size="12" lengthAdjust="spacingAndGlyphs" textLength="90" x="36" y="249.1934">filters（过滤器）</text><text fill="#000000" font-family="sans-serif" font-size="12" lengthAdjust="spacingAndGlyphs" textLength="118" x="46" y="265.582">global（全局过滤器）</text><text fill="#000000" font-family="sans-serif" font-size="12" lengthAdjust="spacingAndGlyphs" textLength="177" x="56" y="281.9707">index.js （全局过滤器出口文件）</text><text fill="#000000" font-family="sans-serif" font-size="12" lengthAdjust="spacingAndGlyphs" textLength="183" x="56" y="298.3594">dateFormat（日期格式化过滤器）</text><text fill="#000000" font-family="sans-serif" font-size="12" lengthAdjust="spacingAndGlyphs" textLength="182" x="46" y="314.748">user（user路由下的局部过滤器）</text><text fill="#000000" font-family="sans-serif" font-size="12" lengthAdjust="spacingAndGlyphs" textLength="114" x="56" y="331.1367">index.js（出口文件）</text><text fill="#000000" font-family="sans-serif" font-size="12" lengthAdjust="spacingAndGlyphs" textLength="117" x="36" y="347.5254">components（组件）</text><text fill="#000000" font-family="sans-serif" font-size="12" lengthAdjust="spacingAndGlyphs" textLength="145" x="46" y="363.9141">common（项目通用组件）</text><text fill="#000000" font-family="sans-serif" font-size="12" lengthAdjust="spacingAndGlyphs" textLength="158" x="46" y="380.3027">user（user路由下通用组件）</text><text fill="#000000" font-family="sans-serif" font-size="12" lengthAdjust="spacingAndGlyphs" textLength="67" x="36" y="396.6914">router (路由)</text><text fill="#000000" font-family="sans-serif" font-size="12" lengthAdjust="spacingAndGlyphs" textLength="138" x="46" y="413.0801">index.js（路由出口文件）</text><text fill="#000000" font-family="sans-serif" font-size="12" lengthAdjust="spacingAndGlyphs" textLength="94" x="36" y="429.4688">services（服务）</text><text fill="#000000" font-family="sans-serif" font-size="12" lengthAdjust="spacingAndGlyphs" textLength="108" x="46" y="445.8574">http.js （请求配置）</text><text fill="#000000" font-family="sans-serif" font-size="12" lengthAdjust="spacingAndGlyphs" textLength="165" x="46" y="462.2461">moduleA.js（模块A相关请求）</text><text fill="#000000" font-family="sans-serif" font-size="12" lengthAdjust="spacingAndGlyphs" textLength="98" x="36" y="478.6348">utils （公共方法）</text><text fill="#000000" font-family="sans-serif" font-size="12" lengthAdjust="spacingAndGlyphs" textLength="114" x="46" y="495.0234">index.js（出口文件）</text><text fill="#000000" font-family="sans-serif" font-size="12" lengthAdjust="spacingAndGlyphs" textLength="106" x="46" y="511.4121">validate.js （验证）</text><text fill="#000000" font-family="sans-serif" font-size="12" lengthAdjust="spacingAndGlyphs" textLength="118" x="36" y="527.8008">views （页面级组件）</text><text fill="#000000" font-family="sans-serif" font-size="12" lengthAdjust="spacingAndGlyphs" textLength="181" x="46" y="544.1895">moduleA（某路由下的相关页面）</text><text fill="#000000" font-family="sans-serif" font-size="12" lengthAdjust="spacingAndGlyphs" textLength="141" x="46" y="560.5781">ModuleB.js（模块B组件）</text><text fill="#000000" font-family="sans-serif" font-size="12" lengthAdjust="spacingAndGlyphs" textLength="100" x="36" y="576.9668">store（vuex数据）</text><text fill="#000000" font-family="sans-serif" font-size="12" lengthAdjust="spacingAndGlyphs" textLength="114" x="46" y="593.3555">index.js（出口文件）</text><text fill="#000000" font-family="sans-serif" font-size="12" lengthAdjust="spacingAndGlyphs" textLength="53" x="46" y="609.7441">actions.js</text><text fill="#000000" font-family="sans-serif" font-size="12" lengthAdjust="spacingAndGlyphs" textLength="68" x="46" y="626.1328">mutations.js</text><text fill="#000000" font-family="sans-serif" font-size="12" lengthAdjust="spacingAndGlyphs" textLength="42" x="46" y="642.5215">module</text><text fill="#000000" font-family="sans-serif" font-size="12" lengthAdjust="spacingAndGlyphs" textLength="62" x="56" y="658.9102">moduleA.js</text><text fill="#000000" font-family="sans-serif" font-size="12" lengthAdjust="spacingAndGlyphs" textLength="63" x="56" y="675.2988">moduleB.js</text><rect fill="none" height="2" style="stroke: #888888; stroke-width: 1.0;" width="2" x="9" y="13.1943"/><rect fill="none" height="2" style="stroke: #888888; stroke-width: 1.0;" width="2" x="19" y="29.583"/><line style="stroke: #888888; stroke-width: 1.0;" x1="10" x2="10" y1="16.1943" y2="30.583"/><line style="stroke: #888888; stroke-width: 1.0;" x1="10" x2="18" y1="30.583" y2="30.583"/><line style="stroke: #888888; stroke-width: 1.0;" x1="20" x2="20" y1="32.583" y2="46.9717"/><line style="stroke: #888888; stroke-width: 1.0;" x1="20" x2="28" y1="46.9717" y2="46.9717"/><rect fill="none" height="2" style="stroke: #888888; stroke-width: 1.0;" width="2" x="19" y="62.3604"/><line style="stroke: #888888; stroke-width: 1.0;" x1="10" x2="10" y1="16.1943" y2="63.3604"/><line style="stroke: #888888; stroke-width: 1.0;" x1="10" x2="18" y1="63.3604" y2="63.3604"/><line style="stroke: #888888; stroke-width: 1.0;" x1="20" x2="20" y1="65.3604" y2="79.749"/><line style="stroke: #888888; stroke-width: 1.0;" x1="20" x2="28" y1="79.749" y2="79.749"/><line style="stroke: #888888; stroke-width: 1.0;" x1="20" x2="20" y1="65.3604" y2="96.1377"/><line style="stroke: #888888; stroke-width: 1.0;" x1="20" x2="28" y1="96.1377" y2="96.1377"/><rect fill="none" height="2" style="stroke: #888888; stroke-width: 1.0;" width="2" x="19" y="111.5264"/><line style="stroke: #888888; stroke-width: 1.0;" x1="10" x2="10" y1="16.1943" y2="112.5264"/><line style="stroke: #888888; stroke-width: 1.0;" x1="10" x2="18" y1="112.5264" y2="112.5264"/><rect fill="none" height="2" style="stroke: #888888; stroke-width: 1.0;" width="2" x="29" y="127.915"/><line style="stroke: #888888; stroke-width: 1.0;" x1="20" x2="20" y1="114.5264" y2="128.915"/><line style="stroke: #888888; stroke-width: 1.0;" x1="20" x2="28" y1="128.915" y2="128.915"/><line style="stroke: #888888; stroke-width: 1.0;" x1="30" x2="30" y1="130.915" y2="145.3037"/><line style="stroke: #888888; stroke-width: 1.0;" x1="30" x2="38" y1="145.3037" y2="145.3037"/><line style="stroke: #888888; stroke-width: 1.0;" x1="30" x2="30" y1="130.915" y2="161.6924"/><line style="stroke: #888888; stroke-width: 1.0;" x1="30" x2="38" y1="161.6924" y2="161.6924"/><line style="stroke: #888888; stroke-width: 1.0;" x1="30" x2="30" y1="130.915" y2="178.0811"/><line style="stroke: #888888; stroke-width: 1.0;" x1="30" x2="38" y1="178.0811" y2="178.0811"/><rect fill="none" height="2" style="stroke: #888888; stroke-width: 1.0;" width="2" x="29" y="193.4697"/><line style="stroke: #888888; stroke-width: 1.0;" x1="20" x2="20" y1="114.5264" y2="194.4697"/><line style="stroke: #888888; stroke-width: 1.0;" x1="20" x2="28" y1="194.4697" y2="194.4697"/><line style="stroke: #888888; stroke-width: 1.0;" x1="30" x2="30" y1="196.4697" y2="210.8584"/><line style="stroke: #888888; stroke-width: 1.0;" x1="30" x2="38" y1="210.8584" y2="210.8584"/><line style="stroke: #888888; stroke-width: 1.0;" x1="30" x2="30" y1="196.4697" y2="227.2471"/><line style="stroke: #888888; stroke-width: 1.0;" x1="30" x2="38" y1="227.2471" y2="227.2471"/><rect fill="none" height="2" style="stroke: #888888; stroke-width: 1.0;" width="2" x="29" y="242.6357"/><line style="stroke: #888888; stroke-width: 1.0;" x1="20" x2="20" y1="114.5264" y2="243.6357"/><line style="stroke: #888888; stroke-width: 1.0;" x1="20" x2="28" y1="243.6357" y2="243.6357"/><rect fill="none" height="2" style="stroke: #888888; stroke-width: 1.0;" width="2" x="39" y="259.0244"/><line style="stroke: #888888; stroke-width: 1.0;" x1="30" x2="30" y1="245.6357" y2="260.0244"/><line style="stroke: #888888; stroke-width: 1.0;" x1="30" x2="38" y1="260.0244" y2="260.0244"/><line style="stroke: #888888; stroke-width: 1.0;" x1="40" x2="40" y1="262.0244" y2="276.4131"/><line style="stroke: #888888; stroke-width: 1.0;" x1="40" x2="48" y1="276.4131" y2="276.4131"/><line style="stroke: #888888; stroke-width: 1.0;" x1="40" x2="40" y1="262.0244" y2="292.8018"/><line style="stroke: #888888; stroke-width: 1.0;" x1="40" x2="48" y1="292.8018" y2="292.8018"/><rect fill="none" height="2" style="stroke: #888888; stroke-width: 1.0;" width="2" x="39" y="308.1904"/><line style="stroke: #888888; stroke-width: 1.0;" x1="30" x2="30" y1="245.6357" y2="309.1904"/><line style="stroke: #888888; stroke-width: 1.0;" x1="30" x2="38" y1="309.1904" y2="309.1904"/><line style="stroke: #888888; stroke-width: 1.0;" x1="40" x2="40" y1="311.1904" y2="325.5791"/><line style="stroke: #888888; stroke-width: 1.0;" x1="40" x2="48" y1="325.5791" y2="325.5791"/><rect fill="none" height="2" style="stroke: #888888; stroke-width: 1.0;" width="2" x="29" y="340.9678"/><line style="stroke: #888888; stroke-width: 1.0;" x1="20" x2="20" y1="114.5264" y2="341.9678"/><line style="stroke: #888888; stroke-width: 1.0;" x1="20" x2="28" y1="341.9678" y2="341.9678"/><line style="stroke: #888888; stroke-width: 1.0;" x1="30" x2="30" y1="343.9678" y2="358.3564"/><line style="stroke: #888888; stroke-width: 1.0;" x1="30" x2="38" y1="358.3564" y2="358.3564"/><line style="stroke: #888888; stroke-width: 1.0;" x1="30" x2="30" y1="343.9678" y2="374.7451"/><line style="stroke: #888888; stroke-width: 1.0;" x1="30" x2="38" y1="374.7451" y2="374.7451"/><rect fill="none" height="2" style="stroke: #888888; stroke-width: 1.0;" width="2" x="29" y="390.1338"/><line style="stroke: #888888; stroke-width: 1.0;" x1="20" x2="20" y1="114.5264" y2="391.1338"/><line style="stroke: #888888; stroke-width: 1.0;" x1="20" x2="28" y1="391.1338" y2="391.1338"/><line style="stroke: #888888; stroke-width: 1.0;" x1="30" x2="30" y1="393.1338" y2="407.5225"/><line style="stroke: #888888; stroke-width: 1.0;" x1="30" x2="38" y1="407.5225" y2="407.5225"/><rect fill="none" height="2" style="stroke: #888888; stroke-width: 1.0;" width="2" x="29" y="422.9111"/><line style="stroke: #888888; stroke-width: 1.0;" x1="20" x2="20" y1="114.5264" y2="423.9111"/><line style="stroke: #888888; stroke-width: 1.0;" x1="20" x2="28" y1="423.9111" y2="423.9111"/><line style="stroke: #888888; stroke-width: 1.0;" x1="30" x2="30" y1="425.9111" y2="440.2998"/><line style="stroke: #888888; stroke-width: 1.0;" x1="30" x2="38" y1="440.2998" y2="440.2998"/><line style="stroke: #888888; stroke-width: 1.0;" x1="30" x2="30" y1="425.9111" y2="456.6885"/><line style="stroke: #888888; stroke-width: 1.0;" x1="30" x2="38" y1="456.6885" y2="456.6885"/><rect fill="none" height="2" style="stroke: #888888; stroke-width: 1.0;" width="2" x="29" y="472.0771"/><line style="stroke: #888888; stroke-width: 1.0;" x1="20" x2="20" y1="114.5264" y2="473.0771"/><line style="stroke: #888888; stroke-width: 1.0;" x1="20" x2="28" y1="473.0771" y2="473.0771"/><line style="stroke: #888888; stroke-width: 1.0;" x1="30" x2="30" y1="475.0771" y2="489.4658"/><line style="stroke: #888888; stroke-width: 1.0;" x1="30" x2="38" y1="489.4658" y2="489.4658"/><line style="stroke: #888888; stroke-width: 1.0;" x1="30" x2="30" y1="475.0771" y2="505.8545"/><line style="stroke: #888888; stroke-width: 1.0;" x1="30" x2="38" y1="505.8545" y2="505.8545"/><rect fill="none" height="2" style="stroke: #888888; stroke-width: 1.0;" width="2" x="29" y="521.2432"/><line style="stroke: #888888; stroke-width: 1.0;" x1="20" x2="20" y1="114.5264" y2="522.2432"/><line style="stroke: #888888; stroke-width: 1.0;" x1="20" x2="28" y1="522.2432" y2="522.2432"/><line style="stroke: #888888; stroke-width: 1.0;" x1="30" x2="30" y1="524.2432" y2="538.6318"/><line style="stroke: #888888; stroke-width: 1.0;" x1="30" x2="38" y1="538.6318" y2="538.6318"/><line style="stroke: #888888; stroke-width: 1.0;" x1="30" x2="30" y1="524.2432" y2="555.0205"/><line style="stroke: #888888; stroke-width: 1.0;" x1="30" x2="38" y1="555.0205" y2="555.0205"/><rect fill="none" height="2" style="stroke: #888888; stroke-width: 1.0;" width="2" x="29" y="570.4092"/><line style="stroke: #888888; stroke-width: 1.0;" x1="20" x2="20" y1="114.5264" y2="571.4092"/><line style="stroke: #888888; stroke-width: 1.0;" x1="20" x2="28" y1="571.4092" y2="571.4092"/><line style="stroke: #888888; stroke-width: 1.0;" x1="30" x2="30" y1="573.4092" y2="587.7979"/><line style="stroke: #888888; stroke-width: 1.0;" x1="30" x2="38" y1="587.7979" y2="587.7979"/><line style="stroke: #888888; stroke-width: 1.0;" x1="30" x2="30" y1="573.4092" y2="604.1865"/><line style="stroke: #888888; stroke-width: 1.0;" x1="30" x2="38" y1="604.1865" y2="604.1865"/><line style="stroke: #888888; stroke-width: 1.0;" x1="30" x2="30" y1="573.4092" y2="620.5752"/><line style="stroke: #888888; stroke-width: 1.0;" x1="30" x2="38" y1="620.5752" y2="620.5752"/><rect fill="none" height="2" style="stroke: #888888; stroke-width: 1.0;" width="2" x="39" y="635.9639"/><line style="stroke: #888888; stroke-width: 1.0;" x1="30" x2="30" y1="573.4092" y2="636.9639"/><line style="stroke: #888888; stroke-width: 1.0;" x1="30" x2="38" y1="636.9639" y2="636.9639"/><line style="stroke: #888888; stroke-width: 1.0;" x1="40" x2="40" y1="638.9639" y2="653.3525"/><line style="stroke: #888888; stroke-width: 1.0;" x1="40" x2="48" y1="653.3525" y2="653.3525"/><line style="stroke: #888888; stroke-width: 1.0;" x1="40" x2="40" y1="638.9639" y2="669.7412"/><line style="stroke: #888888; stroke-width: 1.0;" x1="40" x2="48" y1="669.7412" y2="669.7412"/></g></svg>